<svg xmlns="http://www.w3.org/2000/svg" width="19" height="19">
    <path data-name="Rectangle 788" d="M0 0h19v19H0z" fill="none"/>
    <path data-name="Path 589" d="M6.718 12.284l-3.171 3.168" stroke="#de5145" stroke-linecap="round" stroke-width="1.4" fill="none"/>
    <path data-name="Path 588" d="M11.605 2.136L7.051 6.69a4.014 4.014 0 0 0-4.192.734.585.585 0 0 0-.047.869l7.881 7.881a.584.584 0 0 0 .879-.061c.613-.815 1.576-2.49.738-4.165l4.554-4.554a.584.584 0 0 0 0-.826l-4.436-4.432a.584.584 0 0 0-.823 0z" stroke-linejoin="round" stroke="#de5145" stroke-linecap="round" stroke-width="1.4" fill="none"/>
</svg>